<mxfile host="Electron" modified="2024-06-02T19:57:39.957Z" agent="Mozilla/5.0 (Windows NT 10.0; Win64; x64) AppleWebKit/537.36 (KHTML, like Gecko) draw.io/24.4.8 Chrome/124.0.6367.207 Electron/30.0.6 Safari/537.36" etag="hmPCsjkMQsI4Odl2Sk7N" version="24.4.8" type="device">
  <diagram name="Страница — 1" id="heNF5FCD1qQNATckppjS">
    <mxGraphModel dx="1221" dy="823" grid="1" gridSize="10" guides="1" tooltips="1" connect="1" arrows="1" fold="1" page="1" pageScale="1" pageWidth="827" pageHeight="1169" math="0" shadow="0">
      <root>
        <mxCell id="0" />
        <mxCell id="1" parent="0" />
        <mxCell id="NyhvNuXr-Zma02oPDE7B-1" value="Преподаватель" style="swimlane;whiteSpace=wrap;html=1;" vertex="1" parent="1">
          <mxGeometry x="80" y="50" width="200" height="520" as="geometry" />
        </mxCell>
        <mxCell id="NyhvNuXr-Zma02oPDE7B-4" value="" style="ellipse;fillColor=strokeColor;html=1;" vertex="1" parent="NyhvNuXr-Zma02oPDE7B-1">
          <mxGeometry x="85" y="30" width="30" height="30" as="geometry" />
        </mxCell>
        <mxCell id="NyhvNuXr-Zma02oPDE7B-6" value="Провести лекцию" style="html=1;align=center;verticalAlign=top;rounded=1;absoluteArcSize=1;arcSize=10;dashed=0;whiteSpace=wrap;" vertex="1" parent="NyhvNuXr-Zma02oPDE7B-1">
          <mxGeometry x="30" y="80" width="140" height="40" as="geometry" />
        </mxCell>
        <mxCell id="NyhvNuXr-Zma02oPDE7B-8" value="" style="endArrow=classic;html=1;rounded=0;exitX=0.5;exitY=1;exitDx=0;exitDy=0;entryX=0.5;entryY=0;entryDx=0;entryDy=0;" edge="1" parent="NyhvNuXr-Zma02oPDE7B-1" source="NyhvNuXr-Zma02oPDE7B-4" target="NyhvNuXr-Zma02oPDE7B-6">
          <mxGeometry width="50" height="50" relative="1" as="geometry">
            <mxPoint x="210" y="230" as="sourcePoint" />
            <mxPoint x="260" y="180" as="targetPoint" />
          </mxGeometry>
        </mxCell>
        <mxCell id="NyhvNuXr-Zma02oPDE7B-7" value="Инициировать проведение контроля знаний" style="html=1;align=center;verticalAlign=top;rounded=1;absoluteArcSize=1;arcSize=10;dashed=0;whiteSpace=wrap;" vertex="1" parent="NyhvNuXr-Zma02oPDE7B-1">
          <mxGeometry x="30" y="140" width="140" height="50" as="geometry" />
        </mxCell>
        <mxCell id="NyhvNuXr-Zma02oPDE7B-9" value="" style="endArrow=classic;html=1;rounded=0;exitX=0.5;exitY=1;exitDx=0;exitDy=0;entryX=0.5;entryY=0;entryDx=0;entryDy=0;" edge="1" parent="NyhvNuXr-Zma02oPDE7B-1" source="NyhvNuXr-Zma02oPDE7B-6" target="NyhvNuXr-Zma02oPDE7B-7">
          <mxGeometry width="50" height="50" relative="1" as="geometry">
            <mxPoint x="110" y="70" as="sourcePoint" />
            <mxPoint x="110" y="90" as="targetPoint" />
          </mxGeometry>
        </mxCell>
        <mxCell id="NyhvNuXr-Zma02oPDE7B-23" value="Проанализировать результаты контроля знаний" style="html=1;align=center;verticalAlign=top;rounded=1;absoluteArcSize=1;arcSize=10;dashed=0;whiteSpace=wrap;" vertex="1" parent="NyhvNuXr-Zma02oPDE7B-1">
          <mxGeometry x="30" y="410" width="140" height="50" as="geometry" />
        </mxCell>
        <mxCell id="NyhvNuXr-Zma02oPDE7B-27" value="" style="ellipse;html=1;shape=endState;fillColor=strokeColor;" vertex="1" parent="NyhvNuXr-Zma02oPDE7B-1">
          <mxGeometry x="85" y="480" width="30" height="30" as="geometry" />
        </mxCell>
        <mxCell id="NyhvNuXr-Zma02oPDE7B-28" value="" style="endArrow=classic;html=1;rounded=0;exitX=0.5;exitY=1;exitDx=0;exitDy=0;entryX=0.5;entryY=0;entryDx=0;entryDy=0;" edge="1" parent="NyhvNuXr-Zma02oPDE7B-1" source="NyhvNuXr-Zma02oPDE7B-23" target="NyhvNuXr-Zma02oPDE7B-27">
          <mxGeometry width="50" height="50" relative="1" as="geometry">
            <mxPoint x="110" y="130" as="sourcePoint" />
            <mxPoint x="110" y="150" as="targetPoint" />
          </mxGeometry>
        </mxCell>
        <mxCell id="NyhvNuXr-Zma02oPDE7B-2" value="Генератор задач" style="swimlane;whiteSpace=wrap;html=1;" vertex="1" parent="1">
          <mxGeometry x="280" y="50" width="200" height="520" as="geometry" />
        </mxCell>
        <mxCell id="NyhvNuXr-Zma02oPDE7B-12" value="Сгенерировать задачи" style="html=1;align=center;verticalAlign=top;rounded=1;absoluteArcSize=1;arcSize=10;dashed=0;whiteSpace=wrap;" vertex="1" parent="NyhvNuXr-Zma02oPDE7B-2">
          <mxGeometry x="30" y="190" width="140" height="40" as="geometry" />
        </mxCell>
        <mxCell id="NyhvNuXr-Zma02oPDE7B-16" value="Проверить задачи" style="html=1;align=center;verticalAlign=top;rounded=1;absoluteArcSize=1;arcSize=10;dashed=0;whiteSpace=wrap;" vertex="1" parent="NyhvNuXr-Zma02oPDE7B-2">
          <mxGeometry x="30" y="250" width="140" height="40" as="geometry" />
        </mxCell>
        <mxCell id="NyhvNuXr-Zma02oPDE7B-18" value="Подвести итоги контроля знаний" style="html=1;align=center;verticalAlign=top;rounded=1;absoluteArcSize=1;arcSize=10;dashed=0;whiteSpace=wrap;" vertex="1" parent="NyhvNuXr-Zma02oPDE7B-2">
          <mxGeometry x="30" y="310" width="140" height="40" as="geometry" />
        </mxCell>
        <mxCell id="NyhvNuXr-Zma02oPDE7B-19" value="" style="endArrow=classic;html=1;rounded=0;exitX=0.5;exitY=1;exitDx=0;exitDy=0;entryX=0.5;entryY=0;entryDx=0;entryDy=0;" edge="1" parent="NyhvNuXr-Zma02oPDE7B-2" source="NyhvNuXr-Zma02oPDE7B-16" target="NyhvNuXr-Zma02oPDE7B-18">
          <mxGeometry width="50" height="50" relative="1" as="geometry">
            <mxPoint x="-90" y="130" as="sourcePoint" />
            <mxPoint x="-90" y="150" as="targetPoint" />
          </mxGeometry>
        </mxCell>
        <mxCell id="NyhvNuXr-Zma02oPDE7B-21" value="" style="html=1;points=[];perimeter=orthogonalPerimeter;fillColor=strokeColor;direction=south;" vertex="1" parent="NyhvNuXr-Zma02oPDE7B-2">
          <mxGeometry x="60" y="370" width="80" height="5" as="geometry" />
        </mxCell>
        <mxCell id="NyhvNuXr-Zma02oPDE7B-22" value="" style="endArrow=classic;html=1;rounded=0;exitX=0.5;exitY=1;exitDx=0;exitDy=0;" edge="1" parent="NyhvNuXr-Zma02oPDE7B-2" source="NyhvNuXr-Zma02oPDE7B-18">
          <mxGeometry width="50" height="50" relative="1" as="geometry">
            <mxPoint x="110" y="300" as="sourcePoint" />
            <mxPoint x="100" y="370" as="targetPoint" />
          </mxGeometry>
        </mxCell>
        <mxCell id="NyhvNuXr-Zma02oPDE7B-3" value="Студент" style="swimlane;whiteSpace=wrap;html=1;" vertex="1" parent="1">
          <mxGeometry x="480" y="50" width="200" height="520" as="geometry" />
        </mxCell>
        <mxCell id="NyhvNuXr-Zma02oPDE7B-10" value="Начать контроль знаний" style="html=1;align=center;verticalAlign=top;rounded=1;absoluteArcSize=1;arcSize=10;dashed=0;whiteSpace=wrap;" vertex="1" parent="NyhvNuXr-Zma02oPDE7B-3">
          <mxGeometry x="30" y="145" width="140" height="40" as="geometry" />
        </mxCell>
        <mxCell id="NyhvNuXr-Zma02oPDE7B-14" value="Решить задачи" style="html=1;align=center;verticalAlign=top;rounded=1;absoluteArcSize=1;arcSize=10;dashed=0;whiteSpace=wrap;" vertex="1" parent="NyhvNuXr-Zma02oPDE7B-3">
          <mxGeometry x="30" y="240" width="140" height="40" as="geometry" />
        </mxCell>
        <mxCell id="NyhvNuXr-Zma02oPDE7B-25" value="Проанализировать результаты контроля знаний" style="html=1;align=center;verticalAlign=top;rounded=1;absoluteArcSize=1;arcSize=10;dashed=0;whiteSpace=wrap;" vertex="1" parent="NyhvNuXr-Zma02oPDE7B-3">
          <mxGeometry x="30" y="410" width="140" height="50" as="geometry" />
        </mxCell>
        <mxCell id="NyhvNuXr-Zma02oPDE7B-29" value="" style="shape=sumEllipse;perimeter=ellipsePerimeter;html=1;backgroundOutline=1;" vertex="1" parent="NyhvNuXr-Zma02oPDE7B-3">
          <mxGeometry x="85" y="480" width="30" height="30" as="geometry" />
        </mxCell>
        <mxCell id="NyhvNuXr-Zma02oPDE7B-30" value="" style="endArrow=classic;html=1;rounded=0;exitX=0.5;exitY=1;exitDx=0;exitDy=0;entryX=0.5;entryY=0;entryDx=0;entryDy=0;" edge="1" parent="NyhvNuXr-Zma02oPDE7B-3" source="NyhvNuXr-Zma02oPDE7B-25" target="NyhvNuXr-Zma02oPDE7B-29">
          <mxGeometry width="50" height="50" relative="1" as="geometry">
            <mxPoint x="-290" y="470" as="sourcePoint" />
            <mxPoint x="-290" y="490" as="targetPoint" />
          </mxGeometry>
        </mxCell>
        <mxCell id="NyhvNuXr-Zma02oPDE7B-11" value="" style="endArrow=classic;html=1;rounded=0;exitX=1;exitY=0.5;exitDx=0;exitDy=0;entryX=0;entryY=0.5;entryDx=0;entryDy=0;" edge="1" parent="1" source="NyhvNuXr-Zma02oPDE7B-7" target="NyhvNuXr-Zma02oPDE7B-10">
          <mxGeometry width="50" height="50" relative="1" as="geometry">
            <mxPoint x="190" y="180" as="sourcePoint" />
            <mxPoint x="190" y="200" as="targetPoint" />
          </mxGeometry>
        </mxCell>
        <mxCell id="NyhvNuXr-Zma02oPDE7B-13" value="" style="endArrow=classic;html=1;rounded=1;exitX=0.25;exitY=1;exitDx=0;exitDy=0;entryX=1;entryY=0.25;entryDx=0;entryDy=0;curved=0;" edge="1" parent="1" source="NyhvNuXr-Zma02oPDE7B-10" target="NyhvNuXr-Zma02oPDE7B-12">
          <mxGeometry width="50" height="50" relative="1" as="geometry">
            <mxPoint x="260" y="225" as="sourcePoint" />
            <mxPoint x="520" y="225" as="targetPoint" />
            <Array as="points">
              <mxPoint x="545" y="250" />
            </Array>
          </mxGeometry>
        </mxCell>
        <mxCell id="NyhvNuXr-Zma02oPDE7B-15" value="" style="endArrow=classic;html=1;rounded=1;exitX=1;exitY=0.75;exitDx=0;exitDy=0;entryX=0.25;entryY=0;entryDx=0;entryDy=0;curved=0;" edge="1" parent="1" source="NyhvNuXr-Zma02oPDE7B-12" target="NyhvNuXr-Zma02oPDE7B-14">
          <mxGeometry width="50" height="50" relative="1" as="geometry">
            <mxPoint x="555" y="245" as="sourcePoint" />
            <mxPoint x="460" y="260" as="targetPoint" />
            <Array as="points">
              <mxPoint x="545" y="270" />
            </Array>
          </mxGeometry>
        </mxCell>
        <mxCell id="NyhvNuXr-Zma02oPDE7B-17" value="" style="endArrow=classic;html=1;rounded=0;exitX=0;exitY=0.5;exitDx=0;exitDy=0;entryX=1;entryY=0.25;entryDx=0;entryDy=0;" edge="1" parent="1" source="NyhvNuXr-Zma02oPDE7B-14" target="NyhvNuXr-Zma02oPDE7B-16">
          <mxGeometry width="50" height="50" relative="1" as="geometry">
            <mxPoint x="260" y="225" as="sourcePoint" />
            <mxPoint x="520" y="225" as="targetPoint" />
          </mxGeometry>
        </mxCell>
        <mxCell id="NyhvNuXr-Zma02oPDE7B-24" value="" style="endArrow=classic;html=1;rounded=1;exitX=1.373;exitY=0.857;exitDx=0;exitDy=0;entryX=0.5;entryY=0;entryDx=0;entryDy=0;exitPerimeter=0;curved=0;" edge="1" parent="1" source="NyhvNuXr-Zma02oPDE7B-21" target="NyhvNuXr-Zma02oPDE7B-23">
          <mxGeometry width="50" height="50" relative="1" as="geometry">
            <mxPoint x="390" y="410" as="sourcePoint" />
            <mxPoint x="390" y="430" as="targetPoint" />
            <Array as="points">
              <mxPoint x="351" y="440" />
              <mxPoint x="180" y="440" />
            </Array>
          </mxGeometry>
        </mxCell>
        <mxCell id="NyhvNuXr-Zma02oPDE7B-26" value="" style="endArrow=classic;html=1;rounded=1;exitX=0.893;exitY=0.127;exitDx=0;exitDy=0;entryX=0.5;entryY=0;entryDx=0;entryDy=0;exitPerimeter=0;curved=0;" edge="1" parent="1" source="NyhvNuXr-Zma02oPDE7B-21" target="NyhvNuXr-Zma02oPDE7B-25">
          <mxGeometry width="50" height="50" relative="1" as="geometry">
            <mxPoint x="361" y="437" as="sourcePoint" />
            <mxPoint x="190" y="470" as="targetPoint" />
            <Array as="points">
              <mxPoint x="410" y="440" />
              <mxPoint x="580" y="440" />
            </Array>
          </mxGeometry>
        </mxCell>
      </root>
    </mxGraphModel>
  </diagram>
</mxfile>
